<svg width="37" height="37" viewBox="0 0 37 37" fill="none" xmlns="http://www.w3.org/2000/svg">
<path d="M29.2917 9.25H7.70837C5.15406 9.25 3.08337 11.3207 3.08337 13.875V18.0697L13.6244 21.5833H23.3757L33.9167 18.0697V13.875C33.9167 11.3207 31.846 9.25 29.2917 9.25Z" fill="#C3E8F1"/>
<path d="M15.4167 9.25V7.70833H21.5834V9.25H24.6667V7.70833C24.6648 6.00626 23.2855 4.62694 21.5834 4.625H15.4167C13.7146 4.62694 12.3353 6.00626 12.3334 7.70833V9.25H15.4167ZM13.6244 21.5833L3.08337 18.0696V27.75C3.08616 30.3032 5.1552 32.3722 7.70837 32.375H29.2917C31.8449 32.3722 33.9139 30.3032 33.9167 27.75V18.0696L23.3757 21.5833H13.6244Z" fill="#027794"/>
</svg>
