<svg width="144" height="36" viewBox="0 0 144 36" fill="none" xmlns="http://www.w3.org/2000/svg">
<circle cx="18" cy="18" r="18" fill="#094B72"/>
<path d="M18.66 21.36H23.14V24H15.24V9.96H18.66V21.36Z" fill="white"/>
<path d="M53.66 22.36H58.14V25H50.24V10.96H53.66V22.36ZM60.5913 19.4C60.5913 18.2533 60.8046 17.2467 61.2313 16.38C61.6713 15.5133 62.2646 14.8467 63.0113 14.38C63.7579 13.9133 64.5913 13.68 65.5113 13.68C66.2979 13.68 66.9846 13.84 67.5713 14.16C68.1713 14.48 68.6313 14.9 68.9513 15.42V13.84H72.3713V25H68.9513V23.42C68.6179 23.94 68.1513 24.36 67.5513 24.68C66.9646 25 66.2779 25.16 65.4913 25.16C64.5846 25.16 63.7579 24.9267 63.0113 24.46C62.2646 23.98 61.6713 23.3067 61.2313 22.44C60.8046 21.56 60.5913 20.5467 60.5913 19.4ZM68.9513 19.42C68.9513 18.5667 68.7113 17.8933 68.2313 17.4C67.7646 16.9067 67.1913 16.66 66.5113 16.66C65.8313 16.66 65.2513 16.9067 64.7713 17.4C64.3046 17.88 64.0713 18.5467 64.0713 19.4C64.0713 20.2533 64.3046 20.9333 64.7713 21.44C65.2513 21.9333 65.8313 22.18 66.5113 22.18C67.1913 22.18 67.7646 21.9333 68.2313 21.44C68.7113 20.9467 68.9513 20.2733 68.9513 19.42ZM92.3655 13.84L89.3455 25H85.5655L83.8055 17.76L81.9855 25H78.2255L75.1855 13.84H78.6055L80.1855 21.82L82.0655 13.84H85.6855L87.5855 21.78L89.1455 13.84H92.3655ZM98.5897 10.2V25H95.1697V10.2H98.5897ZM104.288 12.68C103.688 12.68 103.195 12.5067 102.808 12.16C102.435 11.8 102.248 11.36 102.248 10.84C102.248 10.3067 102.435 9.86667 102.808 9.52C103.195 9.16 103.688 8.98 104.288 8.98C104.875 8.98 105.355 9.16 105.728 9.52C106.115 9.86667 106.308 10.3067 106.308 10.84C106.308 11.36 106.115 11.8 105.728 12.16C105.355 12.5067 104.875 12.68 104.288 12.68ZM105.988 13.84V25H102.568V13.84H105.988ZM120.487 19.24C120.487 19.56 120.467 19.8933 120.427 20.24H112.687C112.74 20.9333 112.96 21.4667 113.347 21.84C113.747 22.2 114.233 22.38 114.807 22.38C115.66 22.38 116.253 22.02 116.587 21.3H120.227C120.04 22.0333 119.7 22.6933 119.207 23.28C118.727 23.8667 118.12 24.3267 117.387 24.66C116.653 24.9933 115.833 25.16 114.927 25.16C113.833 25.16 112.86 24.9267 112.007 24.46C111.153 23.9933 110.487 23.3267 110.007 22.46C109.527 21.5933 109.287 20.58 109.287 19.42C109.287 18.26 109.52 17.2467 109.987 16.38C110.467 15.5133 111.133 14.8467 111.987 14.38C112.84 13.9133 113.82 13.68 114.927 13.68C116.007 13.68 116.967 13.9067 117.807 14.36C118.647 14.8133 119.3 15.46 119.767 16.3C120.247 17.14 120.487 18.12 120.487 19.24ZM116.987 18.34C116.987 17.7533 116.787 17.2867 116.387 16.94C115.987 16.5933 115.487 16.42 114.887 16.42C114.313 16.42 113.827 16.5867 113.427 16.92C113.04 17.2533 112.8 17.7267 112.707 18.34H116.987ZM130.011 22.1V25H128.271C127.031 25 126.064 24.7 125.371 24.1C124.677 23.4867 124.331 22.4933 124.331 21.12V16.68H122.971V13.84H124.331V11.12H127.751V13.84H129.991V16.68H127.751V21.16C127.751 21.4933 127.831 21.7333 127.991 21.88C128.151 22.0267 128.417 22.1 128.791 22.1H130.011Z" fill="#2D2F30"/>
</svg>
