<svg width="37" height="37" viewBox="0 0 37 37" fill="none" xmlns="http://www.w3.org/2000/svg">
<path d="M27.3439 22.5421L23.6038 25.981C21.6807 27.6575 19.4212 28.9032 16.977 29.6346L17.9693 34.2645C18.02 34.5009 18.1256 34.722 18.2776 34.9101C18.4295 35.0982 18.6235 35.2479 18.844 35.3472C19.0644 35.4465 19.3051 35.4925 19.5467 35.4816C19.7882 35.4707 20.0238 35.4032 20.2344 35.2845L26.255 31.8887C27.1024 31.3739 27.7643 30.6031 28.1453 29.6877C28.5263 28.7723 28.6067 27.7596 28.3748 26.7955L27.3439 22.5421ZM11.2012 13.5295L14.4212 9.70636L10.4055 8.73745C9.42923 8.39702 8.36275 8.42138 7.40304 8.80603C6.44333 9.19067 5.65523 9.90962 5.18431 10.8301L1.79235 16.8424C1.6735 17.053 1.60587 17.2886 1.59491 17.5302C1.58395 17.7718 1.62997 18.0125 1.72927 18.233C1.82856 18.4535 1.97833 18.6475 2.16648 18.7994C2.35464 18.9513 2.57588 19.0569 2.81235 19.1074L7.54951 20.1229C8.33485 17.7122 9.57438 15.4742 11.2012 13.5295ZM25.7978 13.5918C26.2552 13.5918 26.7023 13.4561 27.0826 13.202C27.4629 12.9479 27.7593 12.5868 27.9343 12.1642C28.1093 11.7417 28.1551 11.2767 28.0659 10.8281C27.9767 10.3795 27.7564 9.96748 27.433 9.64407C27.1096 9.32066 26.6976 9.10042 26.249 9.01119C25.8004 8.92196 25.3354 8.96776 24.9129 9.14279C24.4903 9.31781 24.1292 9.61421 23.8751 9.9945C23.621 10.3748 23.4853 10.8219 23.4853 11.2793C23.4856 11.8925 23.7293 12.4806 24.1629 12.9142C24.5965 13.3478 25.1846 13.5915 25.7978 13.5918Z" fill="#027794"/>
<path d="M34.8433 3.17891C34.7738 2.91486 34.6354 2.67399 34.4423 2.48091C34.2492 2.28782 34.0083 2.14944 33.7443 2.07987C30.5818 1.25781 27.2514 1.34596 24.1368 2.33417C21.0222 3.32239 18.2501 5.17045 16.1401 7.66543L11.2012 13.5295C8.7339 16.4723 7.1687 20.0648 6.69361 23.8755C6.66314 24.1097 6.68687 24.3478 6.76296 24.5713C6.83904 24.7949 6.96546 24.998 7.13246 25.165L11.9118 29.9443C12.0549 30.0875 12.2248 30.2011 12.4118 30.2786C12.5988 30.3561 12.7993 30.396 13.0017 30.396C13.0462 30.396 13.0906 30.3938 13.1357 30.39C17.005 30.0703 20.6716 28.5259 23.6037 25.981L29.2509 20.7885C31.7547 18.6839 33.6096 15.9117 34.5996 12.7943C35.5896 9.6769 35.6741 6.34247 34.8433 3.17891ZM25.7978 13.5917C25.3404 13.5917 24.8933 13.456 24.513 13.2019C24.1327 12.9478 23.8363 12.5867 23.6613 12.1641C23.4863 11.7416 23.4405 11.2766 23.5297 10.828C23.619 10.3794 23.8392 9.96739 24.1626 9.64398C24.486 9.32058 24.8981 9.10033 25.3466 9.0111C25.7952 8.92188 26.2602 8.96767 26.6828 9.1427C27.1053 9.31773 27.4665 9.61413 27.7206 9.99441C27.9747 10.3747 28.1103 10.8218 28.1103 11.2792C28.1101 11.8924 27.8664 12.4805 27.4327 12.9141C26.9991 13.3477 26.411 13.5914 25.7978 13.5917Z" fill="#C3E8F1"/>
</svg>
